# xmcd CD database file
#
# Track frame offsets:
#	183
#	12693
#	23653
#	44425
#	58605
#	73768
#	86370
#	96005
#	112890
#	121788
#	150278
#	161915
#	180415
#	201703
#	221890
#	234860
#	256253
#	274435
#	311270
#
# Disc length: 4227 seconds
#
# Revision: 7
# Processed by: cddbd v1.5.2PL0 Copyright (c) Steve Scherf et al.
# Submitted via: CDex 1.51
#
DISCID=02108113
DTITLE=Stan Getz meets Joao and Astrud Gilberto - Vol. 021 - Stan Getz meets Joao and Astrud Gilberto (New York 1964, Carnegie Hall, October 9, Greenwich Village, Cafe Au Go Go, August 19)
DYEAR=1964
DGENRE=Jazz
TTITLE0=Corcovado (Quiet Nights)
TTITLE1=O Pato
TTITLE2=It Might as Well Be Spring
TTITLE3=Samba De Minha Terra
TTITLE4=One Note Samba
TTITLE5=Tonight I Shall Sleep with a Smile on My Face
TTITLE6=Bim Bom
TTITLE7=The Singing Song
TTITLE8=The Telephone Song
TTITLE9=Here's That Rainy Day
TTITLE10=Eu E Voce
TTITLE11=Rosa Moreno
TTITLE12=Grandfather's Waltz
TTITLE13=Only Trust Your Heart
TTITLE14=Um Abraco No Bonfa
TTITLE15=Stan's Blues
TTITLE16=Meditation
TTITLE17=Summertime
TTITLE18=Six-Nix-Pix-Flix
EXTD=NEW YORK 1964\nCarnegie Hall, October 9\nGreenwich Village, Cafe Au Go Go, August 19 YEAR: 1964
EXTT0=
EXTT1=
EXTT2=
EXTT3=
EXTT4=
EXTT5=
EXTT6=
EXTT7=
EXTT8=
EXTT9=
EXTT10=
EXTT11=
EXTT12=
EXTT13=
EXTT14=
EXTT15=
EXTT16=
EXTT17=
EXTT18=
PLAYORDER=
